<svg width="197" height="197" viewBox="0 0 197 197" fill="none" xmlns="http://www.w3.org/2000/svg">
<path d="M98.6133 196.811C85.0137 196.811 72.252 194.232 60.3281 189.076C48.4043 183.984 37.9307 176.927 28.9072 167.903C19.8838 158.815 12.7939 148.342 7.6377 136.482C2.5459 124.559 0 111.797 0 98.1973C0 84.5977 2.5459 71.8359 7.6377 59.9121C12.7939 47.9883 19.8838 37.5146 28.9072 28.4912C37.9307 19.4678 48.4043 12.4102 60.3281 7.31836C72.252 2.16211 85.0137 -0.416016 98.6133 -0.416016C112.213 -0.416016 124.975 2.16211 136.898 7.31836C148.822 12.4102 159.296 19.4678 168.319 28.4912C177.343 37.5146 184.4 47.9883 189.492 59.9121C194.648 71.8359 197.227 84.5977 197.227 98.1973C197.227 111.797 194.648 124.559 189.492 136.482C184.4 148.342 177.343 158.815 168.319 167.903C159.296 176.927 148.822 183.984 136.898 189.076C124.975 194.232 112.213 196.811 98.6133 196.811ZM98.6133 182.115C105.961 182.115 113.244 181.116 120.463 179.118C127.746 177.185 134.578 174.349 140.959 170.61C147.34 166.937 153.012 162.489 157.975 157.269C154.494 151.726 149.725 147.021 143.666 143.153C137.672 139.222 130.808 136.257 123.073 134.259C115.403 132.196 107.25 131.165 98.6133 131.165C89.8477 131.165 81.5977 132.196 73.8633 134.259C66.1289 136.321 59.2646 139.318 53.2705 143.25C47.3408 147.117 42.6357 151.79 39.1553 157.269C44.1182 162.489 49.79 166.937 56.1709 170.61C62.6162 174.349 69.4482 177.185 76.667 179.118C83.8857 181.116 91.2012 182.115 98.6133 182.115ZM98.6133 114.729C104.801 114.794 110.376 113.247 115.339 110.089C120.366 106.866 124.362 102.483 127.327 96.9404C130.292 91.3975 131.774 85.1777 131.774 78.2812C131.774 71.7715 130.292 65.8096 127.327 60.3955C124.362 54.9814 120.366 50.6631 115.339 47.4404C110.312 44.1533 104.736 42.5098 98.6133 42.5098C92.4258 42.5098 86.8184 44.1533 81.791 47.4404C76.7637 50.6631 72.7676 54.9814 69.8027 60.3955C66.8379 65.8096 65.3877 71.7715 65.4521 78.2812C65.4521 85.1777 66.9023 91.3652 69.8027 96.8438C72.7676 102.322 76.7314 106.673 81.6943 109.896C86.7217 113.054 92.3613 114.665 98.6133 114.729Z" fill="#ECECEC"/>
</svg>
